# xmcd
#
# Track frame offsets: 
#        150
#        17732
#        33223
#        51907
#        69631
#        84773
#        101370
#        117335
#        135062
#        151810
#        171332
#        201469
#
# Disc length: 4440 seconds
#
# Revision: 1
# Processed by: cddbd v1.5.1PL0 Copyright (c) Steve Scherf et al.
# Submitted via: ExactAudioCopy v0.95b2
#
DISCID=9111560c
DTITLE=Aki Sirkesalo - Sanasta Miestä
DYEAR=2005
DGENRE=Pop
TTITLE0=Parempaa Aikaa
TTITLE1=Mullonikäväsua
TTITLE2=Turistit
TTITLE3=Hiljennä, Siiri
TTITLE4=Telepatiaa
TTITLE5=Kun Rakkaus Sanoo Stop
TTITLE6=Haava
TTITLE7=Remontti
TTITLE8=Sanansa Mittainen Mies
TTITLE9=Mene Pois
TTITLE10=Tule Nyt
TTITLE11=Köpiösuöjäsälää
EXTD=
EXTT0=
EXTT1=
EXTT2=
EXTT3=
EXTT4=
EXTT5=
EXTT6=
EXTT7=
EXTT8=
EXTT9=
EXTT10=
EXTT11=
PLAYORDER=
